<svg height="512pt" viewBox="0 -16 512 512" width="512pt" xmlns="http://www.w3.org/2000/svg">
<path d="m497 269.988281h-136v-75c0-8.28125-6.714844-15-15-15h-75v-75c0-8.28125-6.714844-14.988281-15-14.988281h-75v-75.011719c0-8.28125-6.714844-14.988281-15-14.988281h-151c-8.285156 0-15 6.707031-15 14.988281v450c0 8.285157 6.714844 15 15 15h482c8.285156 0 15-6.714843 15-15v-180c0-8.28125-6.714844-15-15-15zm-15 90h-61v-60h61zm-91-60v60h-120v-60zm-361 60v-60h61v60zm0-90v-60h121v60zm0-90v-60h61v60zm91 120h120v60h-120zm210 90v60h-150v-60zm0-180v60h-150v-60zm-90-90v60h-120v-60zm-90-90v60.011719h-121v-60.011719zm-121 360h121v60h-121zm331 60v-60h121v60zm0 0" fill="#00ffff"/>
</svg>